<?xml version="1.0" encoding="UTF-8"?> <svg xmlns="http://www.w3.org/2000/svg" viewBox="0 0 1000 971" xml:space="preserve"><switch><g><path fill-rule="evenodd" clip-rule="evenodd" fill="#FFF" d="m396.1 924.1 3.1-17 36.5 7.4c-2.8 4.8-4.6 9.9-5.6 14.7l-5.5 27.2c-1 4.8-1.4 10.1-.6 15.6l-36.6-7.4 3.7-16.9c2.5 8 6.9 13.6 17.4 16.8l.3.1c1.1-3.7 1.9-7.4 2.6-10.9l2.1-10.5-.6-.1c-5.6-1.1-10.5-.5-16.9 3.9l3.9-19.3c4.2 6.6 8.3 9.8 13.9 10.9l.6.1 2.5-12.2c.7-3.5 1.4-7.2 1.8-11.1-11.8-1.8-17.5 2.5-22.6 8.7m-77-26.6 6.6-15.9 32.2 13c-3.6 4.2-6.2 9-8.1 13.5l-10.4 25.7c-1.8 4.5-3.1 9.7-3.3 15.3l-16.5-6.6c3.2-4.4 5.5-9.2 7.4-13.7l10.4-25.7c1.3-3.2 2.6-6.6 3.4-10.3l-1.3-.5c-5.6-2.4-14-.7-20.4 5.2M206 857.9l9.5-11.5c-6.1-5-9.7-5.9-16.9 2.7-5.2 6.5-5.8 12.6-1.7 16.1.6.5 1.2 1 1.9 1.4 2.6-3 4.9-5.9 7.2-8.7m4.9-52 13 10.7-7.8 17.2c-1.8 3.9-2.2 6.2-1 7.5.7.7 1.7 1.5 2.6 2.3l5.9-7.1c3.1-3.8 5.8-8.5 8.1-13.5l14.4 11.8c-4.7 2.9-8.7 6.7-11.8 10.4l-17.6 21.4c-3.1 3.8-6 8.3-7.8 13.6l-17.4-14.3c-7.7-6.4-12.3-15.4-4.8-24.4 5.5-6.7 13.2-6.5 18.1-5.1-3.1-2.9-3.2-5.1-1-10.1l4.8-10.9c1.2-2.7 2-5.8 2.3-9.5M169 784.5l-21 18.1c-3.7 3.2-7.3 7.2-9.9 12.1l-12.3-14.2c5.3-1.9 9.7-4.9 13.4-8.1l21-18.1c3.7-3.2 7.4-7.2 10.2-12l12 13.9c-5.1 2.1-9.7 5.1-13.4 8.3m-97-63.1c5.5-1.1 10.5-3.5 14.7-6l36.9-22.1 4.2 7-19.6 40.5 18.7-11.2c4.2-2.5 8.6-6 12.2-10.2l5.2 8.7c-5.4 1.1-10.6 3.4-14.8 5.9l-26 15.6c-3.9 2.3-7.6 5.3-9.5 8.7l-7.6-12.7c.8-.1 1.5-.4 2.1-.7 1.8-1.1 2.9-3.1 4.3-6.2l15-29.7-18.4 11c-4.2 2.5-8.7 5.9-12.2 10.2l-5.2-8.8zM98 631c4 11-1.2 25.1-20.6 32.1-16.2 5.9-32.9.4-38.9-16.3-1.6-4.3-2.3-8.9-2.2-10.8l18.2-4.2c-6.4 7.7-9.5 13.8-7.5 19.5 2.4 6.7 10 5.7 18.3 2.7 15.4-5.6 22.6-16 18.8-26.6-1.2-3.2-3.1-5.5-5.2-7.6 8.2-2.1 16.1 2.9 19.1 11.2m-44.3-85c-16.2 2.4-31.2 8.3-29.9 16.7.7 5 6.1 6.4 18.1 4.6 17-2.5 31.6-8.3 30.4-16.8-.8-5.1-7-6.2-18.6-4.5m-2.5 34.7c-18.8 2.8-31.5-5.7-33.6-19.7-2.2-14.7 9-25.7 26.7-28.3 19.1-2.8 32 5.5 34.1 19.6 2.3 14.7-9.9 25.8-27.2 28.4M1 559.9l6.2-10.2c4.9 2.6 8.6 7.9 9.6 15 .3 2.1.5 4.5.3 6.9-4.9-6.7-9.2-9.3-16.1-11.7m14.5-119.7c5.1 2.2 10.7 3 15.6 3.3l42.9 2.3-.4 8.2-38.8 22.6 21.8 1.2c4.9.3 10.5-.2 15.8-1.6l-.5 10.1c-5.1-2.1-10.7-3.1-15.6-3.4L26 481.3c-4.5-.2-9.2.1-12.8 1.8l.8-14.8c.7.3 1.4.5 2.1.6 2.1.1 4.1-1 7-2.7L52.2 450l-21.5-1.2c-4.9-.3-10.5.1-15.8 1.6l.6-10.2zm63.2-126.7c-13.8-5.4-26.1-6-29.3 2.2l-.8 1.9c3.6 1.5 7 2.9 10.4 4.2L84.9 332c3.3 1.3 7 2.6 10.9 3.7l.6-1.4c3.7-9.8-5.5-16-17.7-20.8m2.7-13.9c19.2 7.5 24.4 21.7 19.1 35.1l-7 17.9c-4.2-3.6-9-6.2-13.5-8l-25.8-10.1c-4.6-1.8-10-3.1-15.3-3.3l6.9-17.7c4.7-12 15.6-21.8 35.6-13.9m53-66.5 14.7 9-19.9 31.4c-3.5-4.3-7.6-7.8-11.8-10.4L94 248.2c-4.1-2.6-9-4.9-14.4-6.1l20-31.5 14.4 9.5c-8.4-.5-15.1 1.6-21.9 10.3l-.1.2c3.1 2.4 6.2 4.4 9.3 6.3l9.1 5.8.3-.5c3-4.8 4.2-9.6 2.4-17.2l16.6 10.5c-7.7 1.5-12.1 4.3-15.2 9.1l-.3.5 10.5 6.7c3 1.9 6.2 3.8 9.7 5.6 5.8-10.5 3.9-17.4 0-24.3m71.8-68.8-23-25.8c-3.2-3.6-7.2-7.3-12.2-9.8l13.6-12.1c2.2 5.1 5.3 9.4 8.5 13.1l20.9 23.5c11.3 12.7 11.8 25.6 4.6 35.9-.2-9-4.8-16.3-12.4-24.8m56.2-102.9c1 5.5 3.6 10.5 6.2 14.7l13.9 22.2c4 6.4 6.8 17.3-6.6 25.6-13 8.1-21.8.9-25.7-5.3l-13.9-22.3c-2.6-4.1-6-8.6-10.4-12l15.4-9.6c1 5.5 3.9 10.3 6.5 14.5l13.5 21.7c3.8 6.1 8.9 7.3 14.3 4 5.2-3.3 5.8-8 2-14.1l-13.5-21.7c-2.6-4.1-5.9-8.6-10.6-11.9l8.9-5.8zm79.2 3.4-12.2-17 1.9 20.9 10.3-3.9zm9.9 20.1c.4-1.4-.1-3.7-.9-5.9-.9-2.3-2.2-4.8-3.7-6.8l-3.3-4.5-12 4.6.5 5.6c.2 2.1.8 4.3 1.6 6.4 1.1 2.8 2.5 5.1 3.8 6l-11.4 4.4c1.6-4.3 1.7-9.6 1.5-15.6L325 31.4l5.7-2.2 30 37.1c3.3 4.1 6.9 8.3 11.1 10.7l-20.3 7.9zM444 1.8c-1 5.5-.6 11.1.2 15.9l7 42.4-8.1 1.3-30.5-33 3.6 21.6c.8 4.8 2.4 10.2 5 15.1l-10 1.7c.9-5.5.7-11.1-.1-15.9l-5-29.9c-.7-4.5-2.1-9-4.6-12.1l14.6-2.4c-.2.8-.2 1.5-.1 2.2.3 2 1.8 3.8 4.2 6.3l22.2 24.9-3.5-21.2c-.8-4.8-2.3-10.2-5-15.1L444 1.8zm141.6 45.4-2.2 17.1-36.8-5.2c2.5-4.9 4-10.2 4.7-15l3.9-27.4c.7-4.8.8-10.2-.3-15.6l36.9 5.3-2.7 17c-3-7.8-7.7-13.1-18.4-15.7h-.3c-.9 3.8-1.4 7.5-1.9 11L567 29.2l.6.1c5.6.8 10.5-.1 16.7-4.9l-2.8 19.5c-4.6-6.4-8.9-9.3-14.5-10.1l-.6-.1-1.8 12.3c-.5 3.5-.9 7.3-1.1 11.1 11.9 1.2 17.4-3.4 22.1-9.9M664 69.3l-5.7 16.3-32.9-11.1c3.3-4.4 5.7-9.3 7.3-13.9l8.9-26.3c1.6-4.6 2.6-9.9 2.5-15.5l16.9 5.7c-3 4.5-5 9.5-6.6 14.1l-8.9 26.3c-1.1 3.2-2.2 6.8-2.8 10.5l1.3.4c5.7 1.9 13.9-.2 20-6.5m115.1 33.1-8.8 12c6.4 4.7 10.1 5.4 16.7-3.7 4.8-6.8 5.1-12.9.7-16.1-.6-.4-1.2-.9-1.9-1.3-2.4 3-4.5 6.1-6.7 9.1m-1.9 52.1-13.6-10 6.8-17.6c1.6-4 1.8-6.3.6-7.5-.7-.7-1.8-1.4-2.7-2.1l-5.4 7.4c-2.9 3.9-5.4 8.8-7.3 13.9l-15-11c4.6-3.2 8.3-7.2 11.1-11.1L768 94.2c2.9-3.9 5.5-8.6 7-14l18.1 13.3c8.1 5.9 13.1 14.6 6.2 24.1-5.1 7-12.8 7.2-17.8 6.1 3.3 2.7 3.5 4.9 1.6 10l-4.1 11.2c-1 2.8-1.7 5.9-1.8 9.6m119.4 40.9 8.3 12.2c-.7.2-1.4.4-2 .8-1.7 1.2-2.7 3.3-3.9 6.4l-13.3 30.6 17.8-12.1c4-2.7 8.3-6.4 11.6-10.9l5.7 8.4c-5.4 1.4-10.3 4.1-14.4 6.8l-35.5 24.2-4.6-6.8 17.2-41.5-18.1 12.3c-4 2.7-8.3 6.5-11.6 10.9l-5.7-8.4c5.4-1.5 10.4-4 14.4-6.8l25.1-17.1c3.7-2.3 7.2-5.5 9-9zm-47.1-53.8 13 13.5c-5.2 2.2-9.4 5.4-12.9 8.8l-20 19.2c-3.5 3.4-7 7.6-9.5 12.5l-12.7-13.2c5-2.4 9.4-5.6 12.9-9l20-19.2c3.5-3.3 6.8-7.5 9.2-12.6zM900 322.7c-4.6-10.7-.2-25.1 18.7-33.2 15.9-6.8 32.8-2.3 39.8 14 1.8 4.2 2.8 8.7 2.8 10.7l-17.9 5.2c5.9-8 8.7-14.3 6.3-19.9-2.8-6.6-10.3-5.1-18.4-1.7-15 6.4-21.7 17.3-17.3 27.6 1.4 3.2 3.4 5.3 5.7 7.3-7.9 2.7-16.2-1.9-19.7-10m101 65.5-5.7 10.5c-5.1-2.3-9-7.4-10.5-14.4-.4-2.1-.7-4.5-.7-6.9 5.5 6.3 9.8 8.7 16.9 10.8M949.2 405c16-3.3 30.7-10.1 28.9-18.4-1-5-6.4-6-18.4-3.6-16.8 3.5-31.1 10.1-29.3 18.6 1 5 7.3 5.8 18.8 3.4m.5-34.8c18.6-3.9 31.8 3.9 34.7 17.8 3 14.6-7.5 26.2-25.1 29.8-18.9 3.9-32.3-3.6-35.2-17.6-3.1-14.6 8.4-26.4 25.6-30m43.9 137.2c-5.3-1.8-10.9-2.3-15.7-2.2l-43 .7-.1-8.2 37.2-25.3-21.8.4c-4.9.1-10.5.9-15.7 2.7l-.2-10.1c5.3 1.7 10.9 2.3 15.7 2.3l30.3-.5c4.5-.1 9.2-.8 12.6-2.7l.2 14.8c-.7-.3-1.5-.4-2.2-.4-2.1 0-4 1.2-6.8 3.2l-27.9 18.2 21.5-.4c4.9-.1 10.5-.8 15.7-2.7l.2 10.2zm-56.1 131.1c14.1 4.6 26.4 4.5 29.1-3.9l.6-2c-3.7-1.3-7.2-2.5-10.6-3.6l-26.4-8.6c-3.3-1.1-7.2-2.2-11.1-3l-.5 1.5c-3.1 9.9 6.5 15.5 18.9 19.6m-1.8 14.1c-19.6-6.4-25.6-20.3-21.1-33.9l6-18.3c4.4 3.3 9.3 5.7 14 7.2l26.4 8.6c4.7 1.5 10.2 2.6 15.5 2.4l-5.9 18c-4.2 12.3-14.5 22.7-34.9 16M886.6 722l-15.2-8.1 18.1-32.5c3.7 4.1 8.1 7.4 12.3 9.7l24.2 13.5c4.3 2.4 9.2 4.4 14.7 5.3l-18.1 32.6-14.9-8.6c8.4 0 15-2.5 21.3-11.5l.1-.2c-3.2-2.2-6.5-4-9.6-5.8l-9.4-5.2-.3.6c-2.8 5-3.6 9.9-1.4 17.3l-17.2-9.6c7.6-2 11.9-5 14.6-9.9l.3-.6-10.9-6.1c-3.1-1.7-6.4-3.5-10-5-5.2 10.6-2.9 17.4 1.4 24.1m-109 121 15.2 21.4c2.8 4 6.5 8.2 11.1 11.4L789 886.3c-1.3-5.5-4.5-10.1-7.3-14.1l-14.8-20.8c-4.2-5.9-9.3-6.8-14.5-3.1-5 3.6-5.4 8.3-1.2 14.2l14.8 20.8c2.8 4 6.4 8.3 11.3 11.3l-8.6 6.1c-1.3-5.5-4.2-10.3-7-14.3L746.6 865c-4.3-6.1-7.7-16.9 5.1-25.9 12.4-8.8 21.6-2.2 25.9 3.9zm27.4-72.1c.8 8.7 5.8 15.8 13.9 23.9l24.4 24.5c3.4 3.5 7.6 6.8 12.7 9.1l-12.9 12.9c-2.5-4.9-5.8-9.1-9.2-12.6l-22.2-22.2c-12.1-12.1-13.3-24.9-6.7-35.6zm-115.6 131 13.2 16.2-3.1-20.8-10.1 4.6zm-11-19.5c-.3 1.4.3 3.6 1.3 5.9 1 2.2 2.5 4.6 4.1 6.6l3.5 4.3 11.7-5.3-.8-5.6c-.4-2.1-1-4.3-2-6.3-1.2-2.7-2.8-5-4.1-5.8l11.1-5c-1.3 4.4-1.2 9.6-.6 15.6l5.3 47.4-5.6 2.5-32.1-35.3c-3.5-3.9-7.3-7.9-11.7-10.1l19.9-8.9zm-87.5 88.4c.7-5.5 0-11.1-1.1-15.9l-9.5-41.9 8-1.8 32.3 31.2-4.8-21.3c-1.1-4.8-3-10.1-5.8-14.8l9.9-2.2c-.6 5.5-.1 11.1 1 15.9l6.7 29.6c1 4.4 2.6 8.8 5.3 11.8l-14.5 3.3c.1-.8.1-1.5 0-2.2-.5-2-2-3.7-4.5-6l-23.6-23.6 4.7 21c1.1 4.8 2.9 10.1 5.8 14.8l-9.9 2.1z"></path></g></switch></svg> 