<?xml version="1.0" encoding="UTF-8"?> <svg xmlns="http://www.w3.org/2000/svg" viewBox="0 0 336.7 62.6" xml:space="preserve"><switch><g><g fill="#203b2f"><path d="M31.4 0c17.3-.1 31.7 14 31.8 31.2.1 17.5-14.3 31.6-32 31.4C14.1 62.4.2 48.5 0 31.5-.2 14.4 14.2.1 31.4 0zm.3 3.3C16.6 3.3 3.4 16.2 3.3 31.1c-.1 15 12.8 28.1 28 28.3 14.9.2 28.3-12.9 28.5-27.9.1-14.8-13.1-28.1-28.1-28.2z"></path><path d="M31.3 52.5c12.1.1 21.5-9 21.6-20.8.1-12-9.1-21.4-20.9-21.4-12-.1-21.5 9-21.6 20.8-.1 11.9 9.1 21.4 20.9 21.4z"></path><path d="M31.3 52.5c-11.8-.1-21-9.5-21-21.4.1-11.7 9.5-20.9 21.6-20.8 11.8.1 21 9.5 20.9 21.4 0 11.8-9.4 20.9-21.5 20.8zM99.8 0c17.3-.1 31.7 14 31.8 31.2.1 17.5-14.3 31.6-32 31.4-17.1-.2-31-14.1-31.2-31.1C68.2 14.4 82.6.1 99.8 0zm.3 3.3c-15.2 0-28.3 12.9-28.4 27.8-.1 15 12.8 28.1 28 28.3 14.9.2 28.3-12.9 28.5-27.9.1-14.8-13.1-28.1-28.1-28.2z"></path><path d="M99.7 52.5c12.1.1 21.5-9 21.6-20.8.1-12-9.1-21.4-20.9-21.4-12-.1-21.5 9-21.6 20.8-.1 11.9 9.1 21.4 20.9 21.4z"></path><path d="M99.7 52.5c-11.8-.1-21-9.5-21-21.4.1-11.7 9.5-20.9 21.6-20.8 11.8.1 21 9.5 20.9 21.4 0 11.8-9.5 20.9-21.5 20.8zM168.2 0c17.3-.1 31.7 14 31.8 31.2.1 17.5-14.3 31.6-32 31.4-17.1-.2-31-14.1-31.2-31.1C136.6 14.4 150.9.1 168.2 0zm.3 3.3c-15.1-.1-28.3 12.8-28.4 27.8-.1 15 12.8 28.1 28 28.3 14.9.2 28.3-12.9 28.5-27.9.1-14.8-13.1-28.1-28.1-28.2z"></path><path d="M168.1 52.5c12.1.1 21.5-9 21.6-20.8.1-12-9.1-21.4-20.9-21.4-12-.1-21.5 9-21.6 20.8-.2 11.9 9.1 21.4 20.9 21.4z"></path><path d="M168.1 52.5c-11.8-.1-21-9.5-21-21.4.1-11.7 9.5-20.9 21.6-20.8 11.8.1 21 9.5 20.9 21.4 0 11.8-9.5 20.9-21.5 20.8zM236.6 0c17.3-.1 31.7 14 31.8 31.2.1 17.5-14.3 31.6-32 31.4-17.1-.2-31-14.1-31.2-31.1C205 14.4 219.3.1 236.6 0zm.2 3.3c-15.1-.1-28.3 12.8-28.4 27.8-.1 15 12.8 28.1 28 28.3 14.9.2 28.3-12.9 28.5-27.9.2-14.8-13-28.1-28.1-28.2z"></path><path d="M236.4 52.5c12.1.1 21.5-9 21.6-20.8.1-12-9.1-21.4-20.9-21.4-12-.1-21.5 9-21.6 20.8-.1 11.9 9.1 21.4 20.9 21.4z"></path><path d="M236.4 52.5c-11.8-.1-21-9.5-21-21.4.1-11.7 9.5-20.9 21.6-20.8 11.8.1 21 9.5 20.9 21.4 0 11.8-9.4 20.9-21.5 20.8zM304.9 0c17.3-.1 31.7 14 31.8 31.2.1 17.5-14.3 31.6-32 31.4-17.1-.2-31-14.1-31.2-31.1C273.4 14.4 287.7.1 304.9 0zm.3 3.3c-15.1-.1-28.3 12.8-28.4 27.8-.1 15 12.8 28.1 28 28.3 14.9.2 28.3-12.9 28.5-27.9.1-14.8-13.1-28.1-28.1-28.2z"></path><path d="M304 10.4c-11.4.6-20.1 9.4-20.2 20.7-.1 11.6 8.7 20.9 20.2 21.4V10.4z"></path></g></g></switch></svg> 