<?xml version="1.0" encoding="UTF-8"?> <svg xmlns="http://www.w3.org/2000/svg" viewBox="0 0 269.6 81.8" xml:space="preserve" width="65"><switch><g><g fill-rule="evenodd" clip-rule="evenodd" fill="#163C2F"><path d="m27.5 15.7 7.6 15.5 17 2.4-12.3 12 2.9 17-15.2-8-15.2 8 2.9-17-12.3-12 17-2.4zM81.6 15.7l7.6 15.5 17 2.4-12.3 12 2.9 17-15.2-8-15.2 8 2.9-17-12.3-12 17-2.4zM135.7 15.7l7.6 15.5 17 2.4-12.3 12 2.9 17-15.2-8-15.2 8 2.9-17-12.3-12 17-2.4zM189.8 15.7l7.6 15.5 17 2.4-12.3 12 2.9 17-15.2-8-15.2 8 2.9-17-12.3-12 17-2.4zM243.9 15.7l7.6 15.5 17 2.4-12.3 12 2.9 17-15.2-8-15.2 8 2.9-17-12.3-12 17-2.4zM0 0h269.6v3.2H0zM0 78.6h269.6v3.2H0z"></path></g></g></switch></svg> 